<svg t="1603875070804" class="icon" viewBox="0 0 1024 1024" version="1.1" xmlns="http://www.w3.org/2000/svg" p-id="15664" width="32" height="32"><path d="M711.8 835.6H312.2c-17.8 0.2-32.4-14.1-32.5-31.9V490.4c-0.1-60.9 24.4-119.3 68-161.8 91.3-89.3 237.1-89.3 328.4 0 43.6 42.6 68.1 100.9 68 161.8v313.2c0 17.6-14.2 32-31.9 32h-0.4z m199.8-313.2h-88.8c-17.7 0-32-14.3-32.1-32 0-17.7 14.3-32 32-32.1H911.6c17.7 0 32 14.3 32.1 32 0 17.8-14.4 32.1-32.1 32.1z m-710.4 0h-88.8c-17.7 0-32-14.3-32.1-32 0-17.7 14.3-32 32-32.1H201.2c17.7 0 32 14.3 32.1 32 0 17.8-14.3 32.1-32.1 32.1 0.1 0 0 0 0 0zM512 216.3c-17.8 0.2-32.4-14.1-32.5-31.9V96.7c0-18 14.6-32.5 32.5-32.5 18 0 32.5 14.6 32.5 32.5v87.5c-0.1 17.9-14.7 32.2-32.5 32.1z m219.7 89.6c-8.6 0.1-16.9-3.3-23-9.4-12.5-12.2-12.8-32.3-0.5-44.8l0.5-0.5 68.8-67.8c12.8-12.5 33.3-12.5 46.1 0 12.5 12.2 12.8 32.3 0.5 44.8l-0.5 0.5-68.8 67.8c-6.2 6-14.5 9.4-23.1 9.4z m-439.4 0c-8.6 0.1-16.9-3.3-23-9.4l-68.8-67.8c-12.5-12.2-12.8-32.3-0.5-44.8l0.5-0.5c12.8-12.5 33.3-12.5 46.1 0l68.8 67.8c12.5 12.2 12.8 32.3 0.5 44.8l-0.5 0.5c-6.2 6-14.5 9.4-23.1 9.4z m563.8 653.9H167.9c-17.7 0-32-14.3-32.1-32 0-17.7 14.3-32 32-32.1H856c17.7 0 32 14.3 32.1 32 0 17.7-14.4 32.1-32 32.1h-0.1 0.1z" fill="#1afa29" p-id="15665"></path><path d="M507.9 558h8.2c31.8 0 57.6 25.8 57.6 57.6v220.2H450.3V615.6c0-31.8 25.8-57.6 57.6-57.6z" fill="#1afa29" p-id="15666"></path></svg>