<svg t="1603941759080" class="icon" viewBox="0 0 1150 1024" version="1.1" xmlns="http://www.w3.org/2000/svg" p-id="33680" width="64" height="64"><path d="M1070.28401 775.28c-57.07 59.38-112.97 88.47-166.11 86.6-38.99-1.4-63.9-18.9-92.73-39.16-32.16-22.59-68.6-48.22-126.08-49.5-57.72-0.76-93.65 25.13-125.15 48.44-30.32 22.43-54.28 40.05-96.36 34.14-34.98-4.97-58.26-19.18-85.21-35.63-27.58-16.84-58.85-35.91-104.13-43.39-80.15-13.36-168.19 16.18-261.6 87.53-11.97 9.15-14.26 26.27-5.12 38.24 9.16 11.99 26.27 14.24 38.24 5.13C127.00401 845.84 200.94401 819.9 265.60401 830.6c34.8 5.75 58.99 20.51 84.6 36.14 28.05 17.12 59.84 36.52 105.95 43.09 64.2 9.04 102.63-19.25 136.5-44.3 28.02-20.73 52.2-39.55 91.49-37.74 40.89 0.91 66.39 18.83 95.92 39.57 31.38 22.06 66.97 47.07 122.14 49.06 2.32 0.09 4.64 0.12 6.95 0.12 67.07 0 134.46-34.78 200.46-103.46 10.44-10.85 10.1-28.13-0.76-38.58-10.86-10.42-28.11-10.07-38.57 0.78z" fill="#515151" p-id="33681"></path><path d="M1143.61401 371.54c-6.87-10.12-18.28-16.16-30.19-16.16l-257.55-3.03c-10.14-0.17-18.98 3.07-26.49 8.92L785.40401 395.4H452.56401V142.9c0-19.4-15.77-35.18-35.17-35.18h-76.6c-19.4 0-35.18 15.78-35.18 35.18v122.85h-16.73l-1.42-48.57c-0.6-19.12-16.05-34.09-35.17-34.09H176.70401c-19.4 0-35.18 15.78-35.18 35.18v90.03H94.03401c-19.4 0-35.17 15.77-35.17 35.17v51.94h-21.98c-11.68 0-22.79 5.61-29.71 15.02-6.93 9.4-8.99 21.69-5.52 32.84l96.18 225.16c0.37 0.87 0.89 1.61 1.34 2.42-27.62 13.99-55.76 31.47-84.47 53.39-11.97 9.15-14.26 26.27-5.12 38.24 9.11 11.97 26.27 14.24 38.23 5.13 80.97-61.84 154.87-87.76 219.57-77.08 34.8 5.77 58.99 20.53 84.6 36.16 28.05 17.12 59.84 36.52 105.96 43.09 64.24 9.02 102.64-19.25 136.5-44.3 28.02-20.71 52.17-39.52 91.5-37.74 40.89 0.89 66.39 18.83 95.93 39.57 31.38 22.06 66.96 47.07 122.12 49.06 2.32 0.09 4.64 0.12 6.96 0.12 67.06 0 134.46-34.78 200.46-103.46 10.44-10.85 10.1-28.13-0.76-38.58-10.85-10.41-28.12-10.09-38.58 0.78-17.16 17.85-34.2 32.61-51.11 44.96l126.43-274.28a36.866 36.866 0 0 0-3.78-34.37zM113.43401 362.85h47.48c19.4 0 35.17-15.78 35.17-35.18v-90.03h37.41l1.42 48.51c0.56 19.16 16 34.16 35.16 34.16h54.94c19.4 0 35.18-15.78 35.18-35.18V162.28h37.81V395.4H113.43401v-32.55z m792.52 358.97c-38.99-1.4-63.88-18.92-92.71-39.16-32.16-22.61-68.61-48.22-126.09-49.5-57.72-0.71-93.64 25.13-125.15 48.44-30.33 22.43-54.34 40.07-96.37 34.14-34.98-4.97-58.27-19.18-85.22-35.63-27.58-16.84-58.85-35.93-104.13-43.41-40.59-6.71-83.22-2.37-127.53 12.72-0.26-0.82-0.43-1.65-0.77-2.45l-29.27-68.41h889.03L943.50401 717.89c-12.65 2.91-25.18 4.34-37.55 3.93zM1032.90401 523.99H95.37401L63.71401 449.97h725.22c9.75 0 19.39-3.3 27.14-9.31l43.43-33.7 226.14 2.66L1032.90401 523.99z" fill="#515151" p-id="33682"></path></svg>