<svg t="1603941067989" class="icon" viewBox="0 0 1024 1024" version="1.1" xmlns="http://www.w3.org/2000/svg" p-id="16557" width="64" height="64"><path d="M454.42 93.54H570c9.94 0 18.13 8.19 18.13 18.53v77.86c0 10.14-8.19 18.33-18.13 18.33H530.34v4.09c11.2 3.25 21.55 9.08 29.52 16.61l1.08 1.3c12.52 12.5 20.27 29.77 20.27 48.96 0 18.75-7.11 35.8-18.97 47.65l-1.3 1.72v0.44l196.24 158.28h119.91c16.8 0 30.19 14 30.19 30.83V900.05c0 16.83-13.38 30.41-30.19 30.41H147.35c-16.83 0-30.63-13.58-30.63-30.41V518.14c0-16.83 13.8-30.83 30.63-30.83h119.88l196.24-158.28-0.42-0.44c-12.52-12.72-20.27-30.19-20.27-49.38 0-9.91 7.97-17.91 17.89-17.91 10.14 0 18.33 7.99 18.33 17.91 0 9.05 3.89 17.47 9.94 23.5 0.86 1.08 1.92 1.94 3.22 2.8l8.41-6.89c6.89-5.41 16.61-5.19 23.3 0.42l8.19 6.47c1.06-0.86 2.14-1.72 3.44-2.8l0.86-0.86c5.17-6.03 8.63-13.8 8.63-22.63 0-9.27-3.47-17.05-9.5-23.08l-0.86-1.3c-6.05-5.17-13.8-8.19-22.66-8.19-10.14 0-17.89-8.41-17.89-18.55V208.27H454.4c-10.36 0-18.55-8.19-18.55-18.33v-77.86c0.02-10.34 8.21-18.54 18.57-18.54z m244.54 393.77L525.59 347.36c-4.33 0.64-8.85 1.5-13.6 1.5-4.53 0-9.25-0.86-13.58-1.5L325.04 487.31h373.92z m147.51 61.01H177.53v321.32h668.93V548.32h0.01z m-595.62 54.57c0-9.91 7.77-18.33 17.91-18.33s18.33 8.41 18.33 18.33v212.63c0 9.92-8.19 18.11-18.33 18.11-10.14 0-17.91-8.19-17.91-18.11V602.89z m96.83 0c0-9.91 8.41-18.33 18.33-18.33 10.36 0 18.55 8.41 18.55 18.33v212.63c0 9.92-8.19 18.11-18.55 18.11-9.91 0-18.33-8.19-18.33-18.11V602.89z m97.47 0c0-9.91 8.41-18.33 18.33-18.33 9.91 0 18.11 8.41 18.11 18.33v212.63c0 9.92-8.19 18.11-18.11 18.11s-18.33-8.19-18.33-18.11V602.89z m97.25 0c0-9.91 8.19-18.33 18.55-18.33 9.91 0 17.91 8.41 17.91 18.33v212.63c0 9.92-7.99 18.11-17.91 18.11-10.36 0-18.55-8.19-18.55-18.11V602.89z m97.47 0c0-9.91 7.99-18.33 17.91-18.33 10.14 0 18.77 8.41 18.77 18.33v212.63c0 9.92-8.63 18.11-18.77 18.11-9.91 0-17.91-8.19-17.91-18.11V602.89z m97.05 0c0-9.91 8.19-18.33 18.33-18.33s18.33 8.41 18.33 18.33v212.63c0 9.92-8.19 18.11-18.33 18.11s-18.33-8.19-18.33-18.11V602.89zM551.89 129.98h-79.36v41.62h79.36v-41.62z" fill="#717071" p-id="16558"></path></svg>