<svg t="1603941168987" class="icon" viewBox="0 0 1024 1024" version="1.1" xmlns="http://www.w3.org/2000/svg" p-id="18173" width="64" height="64"><path d="M472.082963 630.328889C380.112593 630.328889 305.303704 555.614815 305.303704 463.644444s74.808889-166.684444 166.779259-166.684444S638.767407 371.768889 638.767407 463.644444s-74.808889 166.684444-166.684444 166.684445z m0-290.607408C403.626667 339.721481 347.97037 395.282963 347.97037 463.644444s55.656296 124.017778 124.112593 124.017778S596.100741 532.005926 596.100741 463.644444 540.444444 339.721481 472.082963 339.721481zM788.954074 347.780741c-52.242963 0-94.814815-42.571852-94.814815-94.814815s42.571852-94.814815 94.814815-94.814815 94.814815 42.571852 94.814815 94.814815-42.477037 94.814815-94.814815 94.814815z m0-146.868148c-28.728889 0-52.148148 23.419259-52.148148 52.148148s23.419259 52.148148 52.148148 52.148148 52.148148-23.419259 52.148148-52.148148c0-28.823704-23.324444-52.148148-52.148148-52.148148zM789.048889 878.838519c-59.06963 0-107.140741-48.071111-107.140741-107.140741s48.071111-107.140741 107.140741-107.140741 107.140741 48.071111 107.140741 107.140741-48.071111 107.140741-107.140741 107.140741z m0-171.614815c-35.555556 0-64.474074 28.918519-64.474074 64.474074s28.918519 64.474074 64.474074 64.474074 64.474074-28.918519 64.474074-64.474074-28.918519-64.474074-64.474074-64.474074zM230.58963 846.222222c-56.414815 0-102.4-45.89037-102.4-102.4s45.89037-102.4 102.4-102.4 102.4 45.89037 102.4 102.4-45.89037 102.4-102.4 102.4z m0-162.133333c-32.900741 0-59.733333 26.832593-59.733334 59.733333s26.832593 59.733333 59.733334 59.733334 59.733333-26.832593 59.733333-59.733334-26.737778-59.733333-59.733333-59.733333z" p-id="18174" fill="#515151"></path><path d="M593.161481 404.48c-6.921481 0-13.653333-3.318519-17.825185-9.481481-6.542222-9.765926-3.887407-23.04 5.973334-29.582223l134.352592-89.315555c9.765926-6.542222 23.04-3.887407 29.582222 5.973333 6.542222 9.765926 3.887407 23.04-5.973333 29.582222L604.918519 400.971852c-3.602963 2.37037-7.68 3.508148-11.757038 3.508148zM283.401481 703.905185c-4.93037 0-9.860741-1.706667-13.937777-5.214815-8.912593-7.68-9.955556-21.143704-2.275556-30.056296l93.771852-108.752593c7.68-8.912593 21.143704-9.955556 30.056296-2.275555 8.912593 7.68 9.955556 21.143704 2.275556 30.056296L299.614815 696.50963c-4.266667 4.835556-10.24 7.395556-16.213334 7.395555zM727.703704 732.918519c-5.404444 0-10.714074-1.991111-14.885926-6.068149l-150.755556-146.962963c-8.438519-8.248889-8.628148-21.712593-0.379259-30.151111 8.248889-8.438519 21.712593-8.628148 30.151111-0.379259l150.755556 146.962963c8.438519 8.248889 8.628148 21.712593 0.379259 30.151111-4.171852 4.266667-9.765926 6.447407-15.265185 6.447408z" p-id="18175" fill="#515151"></path></svg>