<svg t="1603940583867" class="icon" viewBox="0 0 1024 1024" version="1.1" xmlns="http://www.w3.org/2000/svg" p-id="11144" width="64" height="64"><path d="M960 128c0-35.328-28.672-64-64-64L128 64C92.672 64 64 92.672 64 128l0 768c0 35.328 28.672 64 64 64l768 0c35.328 0 64-28.672 64-64L960 128zM896 896 128 896 128 128l768 0L896 896zM320 193.024l0 128L192 321.024l0-128L320 193.024zM448 449.024 320 449.024l0-128 128 0L448 449.024zM576 449.024l0-128 128 0 0 128L576 449.024zM448 705.024 320 705.024l0-128 128 0L448 705.024zM576 577.024l128 0 0 128L576 705.024 576 577.024zM576 321.024 448 321.024l0-128 128 0L576 321.024zM832 321.024l-128 0 0-128 128 0L832 321.024zM320 449.024l0 128L192 577.024l0-128L320 449.024zM576 577.024 448 577.024l0-128 128 0L576 577.024zM704 577.024l0-128 128 0 0 128L704 577.024zM320 833.024 192 833.024l0-128 128 0L320 833.024zM448 705.024l128 0 0 128L448 833.024 448 705.024zM704 833.024l0-128 128 0 0 128L704 833.024z" p-id="11145" fill="#515151"></path></svg>