<svg t="1603869041011" class="icon" viewBox="0 0 1024 1024" version="1.1" xmlns="http://www.w3.org/2000/svg" p-id="10985" width="64" height="64"><path d="M896 832 128 832c-59.52 0-128-35.712-128-95.936L0 173.184C0 112.96 48.448 64 107.904 64l808.128 0C975.552 64 1024 112.96 1024 173.184l0 562.88C1024 796.288 955.52 832 896 832zM960 182.528C960 152.512 935.488 128 905.536 128L118.528 128C88.512 128 64 152.512 64 182.528l0 467.008C64 679.488 88.512 704 118.528 704l787.008 0C935.488 704 960 679.488 960 649.472L960 182.528zM293.184 896l437.632 0C751.36 896 768 910.336 768 928c0 17.664-16.64 32-37.184 32L293.184 960C272.64 960 256 945.664 256 928 256 910.336 272.64 896 293.184 896z" p-id="10986" fill="#515151"></path></svg>