<svg t="1603869220903" class="icon" viewBox="0 0 1092 1024" version="1.1" xmlns="http://www.w3.org/2000/svg" p-id="11915" width="64" height="64"><path d="M955.733333 204.8h-68.266666V68.266667c0-40.96-27.306667-68.266667-68.266667-68.266667H273.066667c-40.96 0-68.266667 27.306667-68.266667 68.266667v136.533333H136.533333C61.44 204.8 0 266.24 0 341.333333v409.6c0 75.093333 61.44 136.533333 136.533333 136.533334h68.266667v34.133333c0 54.613333 47.786667 102.4 102.4 102.4h477.866667c54.613333 0 102.4-47.786667 102.4-102.4V887.466667h68.266666c75.093333 0 136.533333-61.44 136.533334-136.533334V341.333333c0-75.093333-61.44-136.533333-136.533334-136.533333zM273.066667 68.266667h546.133333v136.533333H273.066667V68.266667z m546.133333 750.933333v102.4c0 20.48-13.653333 34.133333-34.133333 34.133333h-477.866667c-20.48 0-34.133333-13.653333-34.133333-34.133333v-204.8c0-20.48 13.653333-34.133333 34.133333-34.133333h477.866667c20.48 0 34.133333 13.653333 34.133333 34.133333V819.2z m204.8-68.266667c0 40.96-27.306667 68.266667-68.266667 68.266667h-68.266666v-102.4c0-54.613333-47.786667-102.4-102.4-102.4h-477.866667C252.586667 614.4 204.8 662.186667 204.8 716.8V819.2H136.533333c-40.96 0-68.266667-27.306667-68.266666-68.266667V341.333333c0-40.96 27.306667-68.266667 68.266666-68.266666h819.2c40.96 0 68.266667 27.306667 68.266667 68.266666v409.6z" p-id="11916" fill="#515151"></path><path d="M819.2 477.866667m-68.266667 0a68.266667 68.266667 0 1 0 136.533334 0 68.266667 68.266667 0 1 0-136.533334 0Z" p-id="11917" fill="#515151"></path></svg>