<svg t="1603941592889" class="icon" viewBox="0 0 1024 1024" version="1.1" xmlns="http://www.w3.org/2000/svg" p-id="29784" width="64" height="64"><path d="M1004.8 742.4c-19.2-6.4-57.6-6.4-89.6 19.2-6.4 0-6.4 6.4-12.8 12.8-25.6 25.6-57.6 51.2-121.6 19.2l44.8-211.2c0-12.8-6.4-25.6-19.2-32l-83.2-25.6c0 0 0 0 0 0l-12.8-236.8c0-12.8-12.8-25.6-25.6-25.6L620.8 262.4 620.8 102.4c0-12.8-12.8-25.6-25.6-25.6L435.2 76.8c-12.8 0-25.6 12.8-25.6 25.6l0 160L326.4 262.4c-12.8 0-25.6 12.8-25.6 25.6L281.6 524.8c0 0 0 6.4 0 6.4l-64 19.2C204.8 550.4 198.4 569.6 198.4 582.4l44.8 211.2c-64 32-96 6.4-121.6-19.2C115.2 768 115.2 768 108.8 761.6c-32-25.6-76.8-25.6-89.6-19.2C6.4 748.8 0 761.6 0 774.4c6.4 12.8 19.2 19.2 32 19.2 0 0 19.2-6.4 44.8 12.8 6.4 0 6.4 6.4 12.8 6.4 25.6 25.6 83.2 70.4 166.4 32l19.2 83.2c0 12.8 12.8 19.2 25.6 19.2l422.4 0c12.8 0 25.6-6.4 25.6-19.2l19.2-83.2c89.6 38.4 140.8-6.4 166.4-32 6.4 0 6.4-6.4 12.8-6.4 19.2-19.2 44.8-12.8 44.8-12.8 12.8 6.4 25.6-6.4 32-19.2C1024 761.6 1017.6 748.8 1004.8 742.4zM729.6 761.6c-83.2-38.4-121.6-12.8-172.8 32l0 0c0 0-6.4 6.4-19.2 6.4L537.6 518.4l230.4 70.4L729.6 761.6zM569.6 134.4l0 25.6-102.4 0L467.2 134.4 569.6 134.4zM460.8 211.2l102.4 0 0 51.2L460.8 262.4 460.8 211.2zM352 313.6l307.2 0 12.8 192L537.6 467.2C537.6 454.4 524.8 448 518.4 448 505.6 448 492.8 454.4 492.8 467.2L339.2 512 352 313.6zM486.4 518.4l0 281.6c-12.8 0-19.2-6.4-25.6-12.8l0 0c-51.2-44.8-89.6-70.4-172.8-32L256 595.2 486.4 518.4zM300.8 819.2c64-32 83.2-19.2 128 19.2l0 0c0 0 0 0 0 0 0 0 25.6 12.8 57.6 19.2l0 32L320 889.6 300.8 819.2zM544 889.6l0-38.4c25.6-6.4 44.8-19.2 44.8-19.2 0 0 0 0 0 0l0 0c44.8-38.4 64-51.2 128-19.2L704 889.6 544 889.6z" p-id="29785" fill="#515151"></path><path d="M620.8 396.8c12.8 0 25.6-12.8 25.6-25.6 0-12.8-12.8-25.6-25.6-25.6L409.6 345.6C396.8 339.2 384 352 384 364.8 384 384 396.8 396.8 409.6 396.8L620.8 396.8z" p-id="29786" fill="#515151"></path></svg>