<svg t="1603940010427" class="icon" viewBox="0 0 1024 1024" version="1.1" xmlns="http://www.w3.org/2000/svg" p-id="2555" width="64" height="64"><path d="M960 106.666667H256c-36.266667 0-64 27.733333-64 64v597.333333c0 36.266667 27.733333 64 64 64h704c36.266667 0 64-27.733333 64-64V170.666667c0-36.266667-27.733333-64-64-64z m21.333333 661.333333c0 12.8-8.533333 21.333333-21.333333 21.333333H256c-12.8 0-21.333333-8.533333-21.333333-21.333333V170.666667c0-12.8 8.533333-21.333333 21.333333-21.333334h704c12.8 0 21.333333 8.533333 21.333333 21.333334v597.333333z m21.333334 106.666667H204.8c-10.666667-25.6-29.866667-44.8-55.466667-55.466667V113.066667l-106.666666-106.666667C38.4 2.133333 32 0 25.6 0 21.333333 0 14.933333 2.133333 10.666667 6.4c-8.533333 8.533333-8.533333 21.333333 0 29.866667L106.666667 132.266667V810.666667c-59.733333 0-106.666667 46.933333-106.666667 106.666666s46.933333 106.666667 106.666667 106.666667 106.666667-46.933333 106.666666-106.666667h789.333334c12.8 0 21.333333-8.533333 21.333333-21.333333s-8.533333-21.333333-21.333333-21.333333zM170.666667 917.333333c0 36.266667-27.733333 64-64 64s-64-27.733333-64-64 27.733333-64 64-64h12.8l12.8 6.4c14.933333 6.4 25.6 19.2 32 32l6.4 12.8v12.8z" fill="#515151" p-id="2556"></path></svg>