<svg t="1603941893674" class="icon" viewBox="0 0 1024 1024" version="1.1" xmlns="http://www.w3.org/2000/svg" p-id="37855" width="64" height="64"><path d="M909.375488 891.201536C880.83968 891.201536 154.75712 891.201536 113.391616 891.201536 72.623104 891.201536 52.827136 843.158528 70.747136 806.531072 95.181824 756.511744 446.897152 203.741184 468.847616 161.466368 488.530944 123.546624 535.410688 122.897408 555.073536 161.466368 585.001984 220.193792 934.933504 770.337792 952.267776 804.769792 973.918208 847.72864 946.382848 891.201536 909.375488 891.201536ZM649.735168 598.258688 529.119232 598.258688 529.119232 477.643776C529.119232 468.127744 521.404416 460.412928 511.888384 460.412928 502.372352 460.412928 494.657536 468.127744 494.657536 477.643776L494.657536 598.258688 374.042624 598.258688C364.525568 598.258688 356.811776 605.973504 356.811776 615.489536 356.811776 625.005568 364.525568 632.720384 374.042624 632.720384L494.657536 632.720384 494.657536 753.335296C494.657536 762.852352 502.372352 770.566144 511.888384 770.566144 521.404416 770.566144 529.119232 762.852352 529.119232 753.335296L529.119232 632.720384 649.735168 632.720384C659.250176 632.720384 666.964992 625.005568 666.964992 615.489536 666.964992 605.973504 659.250176 598.258688 649.735168 598.258688Z" p-id="37856" fill="#515151"></path></svg>