<svg t="1603940845630" class="icon" viewBox="0 0 1024 1024" version="1.1" xmlns="http://www.w3.org/2000/svg" p-id="15146" width="64" height="64"><path d="M735.5 959h-447C165.3 959 65 858.7 65 735.5V290.6C65 165.3 165.3 65 288.5 65h447C858.7 65 959 165.3 959 288.5v447C959 858.7 858.7 959 735.5 959z m-447-812.7c-78.4 0-142.2 63.8-142.2 142.2v447c0 78.4 63.8 142.2 142.2 142.2h447c78.4 0 142.2-63.8 142.2-142.2v-447c0-78.4-63.8-142.2-142.2-142.2h-447z" p-id="15147" fill="#515151"></path><path d="M758.7 769.4H260.9c-22.4 0-40.6-18.2-40.6-40.6s18.2-40.6 40.6-40.6h497.8c22.4 0 40.6 18.2 40.6 40.6s-18.2 40.6-40.6 40.6z" p-id="15148" fill="#515151"></path><path d="M345.6 769.4c-22.4 0-40.6-18.2-40.6-40.6v-210c0-22.4 18.2-40.6 40.6-40.6s40.6 18.2 40.6 40.6v209.9c0 22.5-18.2 40.7-40.6 40.7zM454.4 769.4c-22.4 0-40.6-18.2-40.6-40.6V339.3c0-22.4 18.2-40.6 40.6-40.6 22.4 0 40.6 18.2 40.6 40.6v389.4c0 22.5-18.2 40.7-40.6 40.7zM563.2 769.4c-22.4 0-40.6-18.2-40.6-40.6V295.3c0-22.4 18.2-40.6 40.6-40.6 22.4 0 40.6 18.2 40.6 40.6v433.4c0 22.5-18.2 40.7-40.6 40.7zM672 769.4c-22.4 0-40.6-18.2-40.6-40.6V468c0-22.4 18.2-40.6 40.6-40.6 22.4 0 40.6 18.2 40.6 40.6v260.7c0 22.5-18.2 40.7-40.6 40.7z" p-id="15149" fill="#515151"></path></svg>